<svg width="16" height="16" viewBox="0 0 16 16" fill="none" xmlns="http://www.w3.org/2000/svg">
<path d="M13.7143 1.33333H2.28278C1.75897 1.33333 1.33337 1.76488 1.33337 2.29464V13.7054C1.33337 14.2351 1.75897 14.6667 2.28278 14.6667H13.7143C14.2381 14.6667 14.6667 14.2351 14.6667 13.7054V2.29464C14.6667 1.76488 14.2381 1.33333 13.7143 1.33333ZM5.36314 12.7619H3.38695V6.39881H5.36611V12.7619H5.36314ZM4.37504 5.52976C3.74111 5.52976 3.22921 5.01488 3.22921 4.38393C3.22921 3.75298 3.74111 3.23809 4.37504 3.23809C5.00599 3.23809 5.52087 3.75298 5.52087 4.38393C5.52087 5.01786 5.00897 5.52976 4.37504 5.52976V5.52976ZM12.7709 12.7619H10.7947V9.66667C10.7947 8.92857 10.7798 7.97917 9.7679 7.97917C8.73814 7.97917 8.5804 8.78274 8.5804 9.61309V12.7619H6.60421V6.39881H8.50004V7.26786H8.52683C8.79171 6.76786 9.43754 6.24107 10.3989 6.24107C12.3989 6.24107 12.7709 7.55952 12.7709 9.27381V12.7619V12.7619Z" fill="white"/>
</svg>
